{"title":"Puss In Boots. 2011 [DVDSCR] - ViBE","uid":6945684,"size":738336768,"categoryP":"video","categoryS":"movies","magnet":"?xt=urn:btih:d1c1ddeeac7efc182fc61e414838cc53210a52cd&amp;dn=Puss+In+Boots.+2011+%5BDVDSCR%5D+-+ViBE&amp;tr=udp%3A%2F%2Ftracker.openbittorrent.com%3A80&amp;tr=udp%3A%2F%2Fopen.demonii.com%3A1337&amp;tr=udp%3A%2F%2Ftracker.coppersurfer.tk%3A6969&amp;tr=udp%3A%2F%2Fexodus.desync.com%3A6969","seeders":0,"leechers":0,"uploader":"WORD7BBC","files":-1,"time":1326217816,"description":"Puss In Boots 2011 DVDSCR - ViBE\n\nA story about the events leading up to the sword fighting cat\\'s meeting with Shrek and his friends. \n\n Director: Chris Miller\n Writers: Charles Perrault (character), William Davies (story),  and 4 more credits Ã‚Â» \nStars: Antonio Banderas, Salma Hayek and Zach Galifianakis\n\nFile size: 704 MiB\n Duration: 1h 30mn\n Overall bit rate: 1 090 Kbps\n\n Video\n ID: 0\n Format: MPEG-4 Visual\n Format profile: Advanced Simple@L5\n Format settings, BVOP: 2\n Format settings, QPel: No\n Format settings, GMC: No warppoints\n Format settings, Matrix: Default (H.263)\n Muxing mode: Packed bitstream\n Codec ID: XVID\n Codec ID/Hint: XviD\n Duration: 1h 30mn\n Bit rate: 886 Kbps\n Width: 720 pixels\n Height: 304 pixels\n Display aspect ratio: 2.35:1\n Frame rate: 29.970 fps\n Color space: YUV\n Chroma subsampling: 4:2:0\n Bit depth: 8 bits\n Scan type: Progressive\n Compression mode: Lossy\n Bits/(Pixel*Frame): 0.135\n Stream size: 572 MiB (81%)\n Writing library: XviD 64\n\n Audio\n ID: 1\n Format: AC-3\n Format/Info: Audio Coding 3\n Mode extension: CM (complete main)\n Codec ID: 2000\n Duration: 1h 30mn\n Bit rate mode: Constant\n Bit rate: 192 Kbps\n Channel(s): 2 channels\n Channel positions: Front: L R\n Sampling rate: 48.0 KHz\n Bit depth: 16 bits\n Compression mode: Lossy\n Stream size: 124 MiB (18%)\n Alignment: Split accross interleaves\n Interleave, duration: 33 ms (1.00 video frame)\n Interleave, preload duration: 500 ms &lt;a href=&quot;\nhttp://www.imdb.com/title/tt0448694/&quot; rel=&quot;nofollow&quot; target=&quot;_NEW&quot;&gt;\nhttp://www.imdb.com/title/tt0448694/&lt;/a&gt;\n\n","torrent":{"xt":"urn:btih:d1c1ddeeac7efc182fc61e414838cc53210a52cd","amp;dn":"Puss+In+Boots.+2011+%5BDVDSCR%5D+-+ViBE","amp;tr":["udp%3A%2F%2Ftracker.openbittorrent.com%3A80","udp%3A%2F%2Fopen.demonii.com%3A1337","udp%3A%2F%2Ftracker.coppersurfer.tk%3A6969","udp%3A%2F%2Fexodus.desync.com%3A6969"],"infoHash":"d1c1ddeeac7efc182fc61e414838cc53210a52cd","infoHashBuffer":{"type":"Buffer","data":[209,193,221,238,172,126,252,24,47,198,30,65,72,56,204,83,33,10,82,205]},"announce":[],"urlList":[]}}